<svg width="118" height="118" viewBox="0 0 118 118" fill="none" xmlns="http://www.w3.org/2000/svg">
  <path
    d="M74.0618 53.0993C74.5071 53.0993 74.9333 52.9182 75.2425 52.5978L81.1974 46.4259C81.8106 45.7902 81.8106 44.7832 81.1974 44.1476L75.2425 37.9757C74.9333 37.6553 74.5071 37.4742 74.0618 37.4742H63.8972V32.6406C63.8972 31.7346 63.1628 31 62.2566 31H55.7408C54.8347 31 54.1002 31.7346 54.1002 32.6406V37.4741H40.7425C38.918 37.4741 37.4338 38.9584 37.4338 40.7827V49.7906C37.4338 51.6152 38.918 53.0993 40.7425 53.0993H54.1002V56.3804H43.9356C43.4903 56.3804 43.0641 56.5616 42.7549 56.882L36.8 63.0539C36.1868 63.6896 36.1868 64.6966 36.8 65.3322L42.7549 71.5041C43.0641 71.8245 43.4903 72.0055 43.9356 72.0055H54.1002V83.7188H52.4595C51.5534 83.7188 50.8189 84.4534 50.8189 85.3594C50.8189 86.2654 51.5534 87 52.4595 87H65.5379C66.444 87 67.1785 86.2654 67.1785 85.3594C67.1785 84.4534 66.444 83.7188 65.5379 83.7188H63.8972V72.0055H77.255C79.0794 72.0055 80.5637 70.5213 80.5637 68.6969V59.689C80.5637 57.8646 79.0794 56.3804 77.255 56.3804H63.8972V53.0993H74.0618ZM57.3815 34.2812H60.616V37.4741H57.3815V34.2812ZM40.715 49.7906V40.7828C40.715 40.7677 40.7273 40.7555 40.7425 40.7555H73.3651L77.7371 45.2868L73.3651 49.8181H40.7425C40.7273 49.8181 40.715 49.8057 40.715 49.7906ZM60.616 83.7188H57.3815V72.0055H60.616V83.7188ZM77.2825 59.689V68.6969C77.2825 68.712 77.2702 68.7242 77.255 68.7242H44.6324L40.2604 64.1929L44.6324 59.6617H77.255C77.2702 59.6617 77.2825 59.6739 77.2825 59.689ZM60.616 56.3804H57.3815V53.0993H60.616V56.3804Z"
    fill="#FFC700" />
</svg>