<svg width="14" height="12" viewBox="0 0 14 12" fill="none" xmlns="http://www.w3.org/2000/svg">
<path d="M2.59427 6.00008L6.65197 10.0732C6.79042 10.2116 6.86381 10.3831 6.87214 10.5876C6.88048 10.7921 6.80709 10.9719 6.65197 11.127C6.5071 11.2719 6.33146 11.3443 6.12504 11.3443C5.91864 11.3443 5.74301 11.2719 5.59815 11.127L1.10392 6.63276C1.01034 6.53917 0.944311 6.44046 0.905844 6.33661C0.867378 6.23277 0.848145 6.1206 0.848145 6.00008C0.848145 5.87956 0.867378 5.76739 0.905844 5.66356C0.944311 5.55971 1.01034 5.46099 1.10392 5.36741L5.59815 0.873181C5.7366 0.734714 5.90806 0.661314 6.11254 0.652981C6.31703 0.644648 6.49684 0.718047 6.65197 0.873181C6.79684 1.01805 6.86927 1.19368 6.86927 1.40008C6.86927 1.60648 6.79684 1.78211 6.65197 1.92698L2.59427 6.00008ZM8.94424 6.00008L13.0019 10.0732C13.1404 10.2116 13.2138 10.3831 13.2221 10.5876C13.2305 10.7921 13.1571 10.9719 13.0019 11.127C12.8571 11.2719 12.6814 11.3443 12.475 11.3443C12.2686 11.3443 12.093 11.2719 11.9481 11.127L7.45389 6.63276C7.36031 6.53917 7.29429 6.44046 7.25582 6.33661C7.21737 6.23277 7.19814 6.1206 7.19814 6.00008C7.19814 5.87956 7.21737 5.76739 7.25582 5.66356C7.29429 5.55971 7.36031 5.46099 7.45389 5.36741L11.9481 0.873181C12.0866 0.734714 12.2581 0.661314 12.4625 0.652981C12.667 0.644648 12.8468 0.718047 13.0019 0.873181C13.1468 1.01805 13.2192 1.19368 13.2192 1.40008C13.2192 1.60648 13.1468 1.78211 13.0019 1.92698L8.94424 6.00008Z" fill="#637381"/>
</svg>
