<svg width="7" height="12" viewBox="0 0 7 12" fill="none" xmlns="http://www.w3.org/2000/svg">
<path d="M2.45387 5.99991L6.52694 10.073C6.66541 10.2115 6.73624 10.3855 6.73944 10.5951C6.74266 10.8047 6.67183 10.9819 6.52694 11.1268C6.38208 11.2717 6.20644 11.3441 6.00004 11.3441C5.79364 11.3441 5.61801 11.2717 5.47314 11.1268L0.978919 6.63258C0.885319 6.539 0.819294 6.44028 0.780844 6.33643C0.742377 6.2326 0.723145 6.12042 0.723145 5.99991C0.723145 5.87939 0.742377 5.76721 0.780844 5.66338C0.819294 5.55953 0.885319 5.46081 0.978919 5.36723L5.47314 0.873005C5.61159 0.734539 5.78563 0.663705 5.99524 0.660505C6.20484 0.657289 6.38208 0.728122 6.52694 0.873005C6.67183 1.01787 6.74427 1.1935 6.74427 1.3999C6.74427 1.60631 6.67183 1.78194 6.52694 1.9268L2.45387 5.99991Z" fill="#637381"/>
</svg>
