<svg width="7" height="12" viewBox="0 0 7 12" fill="none" xmlns="http://www.w3.org/2000/svg">
  <path
    d="M4.54613 6.00009L0.473057 1.92699C0.33459 1.78854 0.263757 1.61451 0.260557 1.40489C0.25734 1.19529 0.328174 1.01806 0.473057 0.873194C0.617923 0.728311 0.793557 0.655869 0.999957 0.655869C1.20636 0.655869 1.38199 0.728311 1.52686 0.873194L6.02108 5.36742C6.11468 5.461 6.18071 5.55972 6.21916 5.66357C6.25762 5.7674 6.27686 5.87958 6.27686 6.00009C6.27686 6.12061 6.25762 6.23279 6.21916 6.33662C6.18071 6.44047 6.11468 6.53919 6.02108 6.63277L1.52686 11.127C1.38841 11.2655 1.21437 11.3363 1.00476 11.3395C0.795156 11.3427 0.617922 11.2719 0.473056 11.127C0.328173 10.9821 0.255731 10.8065 0.255731 10.6001C0.255731 10.3937 0.328173 10.2181 0.473056 10.0732L4.54613 6.00009Z"
    fill="#637381" />
</svg>