<svg width="14" height="12" viewBox="0 0 14 12" fill="none" xmlns="http://www.w3.org/2000/svg">
<path d="M5.05588 5.99999L0.998181 1.92689C0.859714 1.78844 0.786314 1.61697 0.777981 1.41249C0.769648 1.208 0.843048 1.0282 0.998181 0.873087C1.14305 0.728203 1.31868 0.655762 1.52508 0.655762C1.7315 0.655762 1.90714 0.728203 2.05201 0.873087L6.54623 5.36731C6.63981 5.46089 6.70584 5.55961 6.74431 5.66346C6.78276 5.76729 6.80198 5.87947 6.80198 5.99999C6.80198 6.1205 6.78276 6.23268 6.74431 6.33651C6.70584 6.44036 6.63981 6.53908 6.54623 6.63266L2.05201 11.1269C1.91354 11.2654 1.74206 11.3388 1.53758 11.3471C1.3331 11.3554 1.1533 11.282 0.998181 11.1269C0.853314 10.982 0.780881 10.8064 0.780881 10.6C0.780881 10.3936 0.853314 10.218 0.998181 10.0731L5.05588 5.99999ZM11.4059 5.99999L7.34816 1.92689C7.20971 1.78844 7.13631 1.61697 7.12798 1.41249C7.11965 1.208 7.19304 1.0282 7.34816 0.873087C7.49302 0.728203 7.66866 0.655762 7.87508 0.655762C8.08148 0.655762 8.25711 0.728203 8.40198 0.873087L12.8962 5.36731C12.9898 5.46089 13.0558 5.55961 13.0943 5.66346C13.1327 5.76729 13.152 5.87947 13.152 5.99999C13.152 6.1205 13.1327 6.23268 13.0943 6.33651C13.0558 6.44036 12.9898 6.53908 12.8962 6.63266L8.40198 11.1269C8.26353 11.2654 8.09206 11.3388 7.88758 11.3471C7.6831 11.3554 7.50329 11.282 7.34816 11.1269C7.20329 10.982 7.13086 10.8064 7.13086 10.6C7.13086 10.3936 7.20329 10.218 7.34816 10.0731L11.4059 5.99999Z" fill="#637381"/>
</svg>
