<svg width="118" height="118" viewBox="0 0 118 118" fill="none" xmlns="http://www.w3.org/2000/svg">
  <path d="M52 43.75V75.25" stroke="#FFC700" stroke-width="3.5" stroke-linecap="round"
    stroke-linejoin="round" />
  <path
    d="M36.25 68.0729C36.2499 67.6697 36.3892 67.2789 36.6444 66.9667C36.8995 66.6545 37.2547 66.4402 37.6498 66.36C39.2308 66.037 40.6517 65.1779 41.6722 63.9278C42.6926 62.6778 43.25 61.1137 43.25 59.5C43.25 57.8863 42.6926 56.3222 41.6722 55.0721C40.6517 53.8221 39.2308 52.963 37.6498 52.64C37.2547 52.5598 36.8995 52.3455 36.6444 52.0333C36.3892 51.7211 36.2499 51.3303 36.25 50.9271V45.5C36.25 45.0359 36.4344 44.5908 36.7626 44.2626C37.0908 43.9344 37.5359 43.75 38 43.75H80C80.4641 43.75 80.9093 43.9344 81.2374 44.2626C81.5655 44.5908 81.75 45.0359 81.75 45.5V50.9271C81.75 51.3303 81.6107 51.7211 81.3555 52.0333C81.1006 52.3455 80.7453 52.5598 80.3502 52.64C78.7692 52.963 77.3482 53.8221 76.3278 55.0721C75.3074 56.3222 74.75 57.8863 74.75 59.5C74.75 61.1137 75.3074 62.6778 76.3278 63.9278C77.3482 65.1779 78.7692 66.037 80.3502 66.36C80.7453 66.4402 81.1006 66.6545 81.3555 66.9667C81.6107 67.2789 81.75 67.6697 81.75 68.0729V73.5C81.75 73.9641 81.5655 74.4093 81.2374 74.7374C80.9093 75.0655 80.4641 75.25 80 75.25H38C37.5359 75.25 37.0908 75.0655 36.7626 74.7374C36.4344 74.4093 36.25 73.9641 36.25 73.5V68.0729Z"
    stroke="#FFC700" stroke-width="3.5" stroke-linecap="round" stroke-linejoin="round" />
</svg>